# xmcd
#
# Track frame offsets: 
#        150
#        23933
#        37755
#        56768
#        108147
#        126447
#        139687
#        154704
#        187332
#        203158
#
# Disc length: 2864 seconds
#
# Revision: 0
# Processed by: cddbd v1.5.2PL0 Copyright (c) Steve Scherf et al.
# Submitted via: ExactAudioCopy v0.99pb4
#
DISCID=890b2e0a
DTITLE=The Blues Project - The Blues Project
DYEAR=1968
DGENRE=Blues/Folk
TTITLE0=Wake Me Shake Me
TTITLE1=Catch The Wind
TTITLE2=You Can't Catch Me
TTITLE3=Two Trains Running
TTITLE4=Goin' Down Louisiana
TTITLE5=Violets Of Dawn
TTITLE6=Back Door Man
TTITLE7=Caress Me Baby
TTITLE8=Fly Away
TTITLE9=Mean Old Southern
EXTD=
EXTT0=
EXTT1=
EXTT2=
EXTT3=
EXTT4=
EXTT5=
EXTT6=
EXTT7=
EXTT8=
EXTT9=
PLAYORDER=
